# xmcd
#
# Track frame offsets:
#	150
#	19478
#	32586
#	46492
#	59686
#	75312
#	94270
#	111558
#	128268
#	150642
#	163329
#	179043
#	193104
#	211124
#	230069
#	243438
#	256302
#	277003
#	287708
#	300138
#
# Disc length: 4191 seconds
#
# Revision: 4
# Processed by: cddbd v1.5.2PL0 Copyright (c) Steve Scherf et al.
# Submitted via: audiograbber 1.83.01
#
DISCID=1e105d14
DTITLE=Dionne Warwick - The Love Collection
DYEAR=2008
DGENRE=Pop
TTITLE0=Heartbreaker
TTITLE1=Walk On By
TTITLE2=I Say A Little Prayer
TTITLE3=Do You Know The Way To San Jose
TTITLE4=All The Love In The World
TTITLE5=That's What Friends Are For (with Elton John, Gladys Knight and Stevie Wo
TTITLE5=nder)
TTITLE6=Déjà Vu
TTITLE7=So Amazing
TTITLE8=It's You (with Stevie Wonder)
TTITLE9=The Look Of Love
TTITLE10=How Many Times Can We Say Goodbye (with Luther Vandross)
TTITLE11=Anyone Who Had A Heart
TTITLE12=Friends In Love (with Johnny Mathis)
TTITLE13=I Don't Need Another Love (with The Detroit Spinners)
TTITLE14=I'll Never Fall In Love Again
TTITLE15=Reach Out For Me
TTITLE16=Love Power (with Jeffrey Osborne and Kenny G)
TTITLE17=(They Long To Be) Close To You
TTITLE18=I Just Don't Know What To Do With Myself
TTITLE19=What The World Needs Now
EXTD=CDDBSort:warwick_dionne,love_collection - YEAR: 2008
EXTT0=
EXTT1=
EXTT2=
EXTT3=
EXTT4=
EXTT5=
EXTT6=
EXTT7=
EXTT8=
EXTT9=
EXTT10=
EXTT11=
EXTT12=
EXTT13=
EXTT14=
EXTT15=
EXTT16=
EXTT17=
EXTT18=
EXTT19=
PLAYORDER=
